<svg xmlns="http://www.w3.org/2000/svg" xmlns:xlink="http://www.w3.org/1999/xlink" width="122" height="122" viewBox="0 0 122 122">
    <defs>
        <path id="a" d="M60.945 121.167c-33.231 0-60.17-26.939-60.17-60.17S27.714.827 60.945.827s60.17 26.939 60.17 60.17-26.939 60.17-60.17 60.17zm0-112.339c-28.766 0-52.169 23.402-52.169 52.169 0 28.767 23.403 52.17 52.169 52.17 28.767 0 52.17-23.403 52.17-52.17 0-28.767-23.403-52.169-52.17-52.169z"/>
    </defs>
    <g fill="none" fill-rule="evenodd">
        <g>
            <mask id="b" fill="#fff">
                <use xlink:href="#a"/>
            </mask>
            <path fill="#FFF" d="M.775 121.167h120.34V.827H.775z" mask="url(#b)"/>
        </g>
        <path fill="#FFF" d="M57.83 100l-6.765-1.802 2.916-10.822-5.298-1.411-2.917 10.823-6.96-1.855 2.918-10.822L28 80.454l3.844-7.695 4.682 1.247c.224.06.45.087.672.087 1.252 0 2.425-.898 2.788-2.247l8.099-30.041c.428-1.59-.427-3.197-1.91-3.593l-6.333-1.685 2.252-8.358 13.725 3.654L58.735 21l6.717 1.788-2.673 10.89 5.296 1.41 2.92-10.824 6.763 1.804L74.84 36.89l.797.213C83.775 39.27 89.592 47.15 87.61 54.496c-1.492 5.54-5.18 8.04-8.662 8.88 4.677 2.423 9.056 7.682 7.071 15.047-2.367 8.776-9.41 11.898-16.952 11.898-2.776 0-5.62-.423-8.322-1.142L57.829 100m-2.87-37.669l-4.096 15.493 9.254 2.465c1.156.307 2.25.456 3.27.456 3.89 0 6.694-2.155 7.651-5.84 1.21-4.65-1.356-8.653-6.75-10.089-7.206-1.92-9.327-2.483-9.33-2.485m5.554-20.3l-3.048 11.302s4.361 1.162 7.702 2.05c.828.22 1.608.324 2.332.324 2.948 0 4.979-1.718 5.637-4.257.819-3.164-.851-6.284-4.924-7.368-6.947-1.85-7.643-2.037-7.7-2.051"/>
    </g>
</svg>
