<svg xmlns="http://www.w3.org/2000/svg" width="120" height="120" viewBox="0 0 120 120">
    <g fill="#FFF" fill-rule="evenodd">
        <path d="M60 120C26.862 120 0 93.137 0 60S26.862 0 60 0c33.136 0 60 26.863 60 60s-26.864 60-60 60M60 7.978C31.314 7.978 7.977 31.314 7.977 60S31.314 112.023 60 112.023c28.686 0 52.023-23.337 52.023-52.023 0-28.686-23.337-52.022-52.023-52.022"/>
        <path d="M60 77V44l28 16.499L60 77M60 77L32 60.499 60 44v33M32 60l28-46v29.519L32 60M88 60L60 43.519V14l28 46M60 106V82.672L88 66l-28 40M60 106L32 66l28 16.672V106"/>
    </g>
</svg>
