<svg xmlns="http://www.w3.org/2000/svg" width="120" height="120" viewBox="0 0 120 120">
    <g fill="#FFF" fill-rule="evenodd">
        <path d="M60 120C26.864 120 0 93.137 0 60S26.864 0 60 0c33.136 0 60 26.863 60 60s-26.864 60-60 60M60 7.978C31.311 7.978 7.977 31.314 7.977 60S31.311 112.023 60 112.023c28.689 0 52.023-23.337 52.023-52.023 0-28.686-23.334-52.022-52.023-52.022"/>
        <path d="M88.354 92H32.289l5.822-21.65L29 73.484l3.18-10.09 8.613-2.998L50.58 24h21.072L64.29 52.205l10.254-3.577-2.623 10.088-10.254 3.526-4.232 16.213H92L88.354 92"/>
    </g>
</svg>
