<svg xmlns="http://www.w3.org/2000/svg" width="120" height="120" viewBox="0 0 120 120">
    <g fill="#FFF" fill-rule="evenodd">
        <path d="M60 120C26.86 120 0 93.14 0 60 0 26.864 26.86 0 60 0c33.136 0 60 26.864 60 60 0 33.14-26.864 60-60 60M60 7.977C31.314 7.977 7.977 31.315 7.977 60c0 28.686 23.337 52.023 52.023 52.023 28.685 0 52.023-23.337 52.023-52.023 0-28.685-23.338-52.023-52.023-52.023"/>
        <path d="M68.17 93c-.918-5.86-3.658-10.388-6.17-13.32A2267.2 2267.2 0 0 0 70.963 69c1.409 2.77 2.036 5.736 2.037 8.76.002 5.19-1.865 10.551-4.83 15.24M40.305 93c-1.124 0-2.13-.279-2.97-.865-4.176-2.924-2.6-12.381 3.521-21.135l1.877 1.312c-3.711 5.318-4.176 11.4-1.036 13.596.77.539 1.686.795 2.684.795 3.072 0 6.93-2.416 9.743-6.419L56 81.597C51.095 88.585 44.776 93 40.305 93"/>
        <path d="M58.067 82h-.003c-.899 0-1.81-.267-2.594-.812l-.295-.205-7.475-5.196-5.622-3.907-1.853-1.286-.296-.206A4.483 4.483 0 0 1 38 66.705a4.438 4.438 0 0 1 .56-2.16l.134-.242.465-.836c1.772-3.18 3.979-7.08 6.896-12.234l.501-.885c1.74-3.073 3.724-6.577 6.007-10.62 2.833-5.035 6.594-8.689 11.609-11.177 5.015-2.495 11.234-3.858 19.105-4.547a1.21 1.21 0 0 1 1.277.888C86.14 30.787 86.999 35.886 87 40.466c.001 3.596-.533 6.876-1.66 9.924-1.128 3.05-2.844 5.858-5.161 8.528a10738.73 10738.73 0 0 0-8.002 9.235l-.668.77C67.626 73.41 64.69 76.8 62.285 79.54c-.214.246-.426.486-.633.721l-.183.207-.002.002a4.54 4.54 0 0 1-3.4 1.53M83 25l-1 .312L83 25M69.001 55h-.007A8.996 8.996 0 0 1 60 45.994a8.95 8.95 0 0 1 1.629-5.155A8.994 8.994 0 0 1 69.003 37h.005a8.96 8.96 0 0 1 5.155 1.629A8.989 8.989 0 0 1 78 46.007a8.973 8.973 0 0 1-1.627 5.155l-1.005-.702 1.005.704A8.99 8.99 0 0 1 69.001 55"/>
        <path d="M29.947 62.207c-1.582 0-3.24.133-4.947.443C29.905 56.499 36.924 52 44.541 52c.824 0 1.638.051 2.459.154A2186.672 2186.672 0 0 0 39.977 64a29.203 29.203 0 0 0-10.03-1.793z"/>
    </g>
</svg>
