<svg xmlns="http://www.w3.org/2000/svg" width="120" height="120" viewBox="0 0 120 120">
    <g fill="#FFF" fill-rule="evenodd">
        <path d="M60 120C26.864 120 0 93.138 0 60 0 26.862 26.864 0 60 0c33.136 0 60 26.862 60 60 0 33.138-26.864 60-60 60M60 7.977C31.311 7.977 7.977 31.315 7.977 60c0 28.685 23.334 52.023 52.023 52.023 28.689 0 52.023-23.338 52.023-52.023 0-28.685-23.334-52.023-52.023-52.023"/>
        <path d="M73.342 99c-8.654 0-15.669-7.015-15.669-15.666 0-2.856.764-5.532 2.1-7.835a6.653 6.653 0 0 0-5.758-9.979 6.638 6.638 0 0 0-5.759 3.327l-.02-.013c-2.713 4.682-7.779 7.831-13.578 7.831C26.015 76.665 19 69.653 19 60.999c0-8.652 7.015-15.666 15.658-15.666 5.8 0 10.865 3.15 13.578 7.832a6.627 6.627 0 0 0 9.076 2.434 6.656 6.656 0 0 0 2.442-9.085l.02-.012a15.575 15.575 0 0 1-2.1-7.836C57.673 30.014 64.687 23 73.341 23 81.995 23 89 30.014 89 38.666c0 8.653-7.005 15.667-15.658 15.667v.003a6.65 6.65 0 0 0-6.654 6.65 6.65 6.65 0 0 0 6.654 6.653v.028C81.995 67.667 89 74.683 89 83.334S81.995 99 73.342 99"/>
    </g>
</svg>
